<?xml version="1.0" encoding="UTF-8"?>
<svg width="24px" height="22px" viewBox="0 0 24 22" version="1.1" xmlns="http://www.w3.org/2000/svg" xmlns:xlink="http://www.w3.org/1999/xlink">
    <!-- Generator: Sketch 55.2 (78181) - https://sketchapp.com -->
    <title>Search</title>
    <desc>Created with Sketch.</desc>
    <g id="Symbols" stroke="none" stroke-width="1" fill="none" fill-rule="evenodd">
        <g id="MobileTopNavC" transform="translate(-243.000000, -29.000000)" fill="#454F5B" fill-rule="nonzero">
            <g id="Search" transform="translate(243.000000, 29.000000)">
                <g id="Group" opacity="0.3">
                    <path d="M17.3460494,7.739875 C16.5622823,7.739875 15.9269136,8.38318585 15.9269136,9.17675 C15.9269136,9.97031415 16.5622823,10.613625 17.3460494,10.613625 C18.1298164,10.613625 18.7651852,9.97031415 18.7651852,9.17675 C18.7651852,8.38318585 18.1298164,7.739875 17.3460494,7.739875 Z" id="Path"></path>
                    <ellipse id="Oval" cx="8.19839506" cy="9.17675" rx="1.4191358" ry="1.436875"></ellipse>
                    <path d="M23.0198765,1.68025 L23.0035802,1.68025 C22.6768562,1.68924786 22.4188196,1.96403404 22.4264198,2.294875 C22.4264198,2.3045 22.4440741,3.394875 21.8112346,3.93525 C21.5111111,4.19375 21.0860494,4.301 20.5455556,4.257 C18.8155528,1.6168134 15.8939409,0.0300861947 12.764653,0.0311918065 C9.63536511,0.0322985742 6.71484821,1.62109095 4.98666667,4.2625 C4.45296296,4.30375 4.03604938,4.1965 3.7345679,3.939375 C3.10444444,3.392125 3.12345679,2.31825 3.12345679,2.29625 C3.12100627,1.97316027 2.86665315,1.70987395 2.54768421,1.70025555 C2.22871527,1.69063716 1.95933772,1.93813058 1.93790123,2.2605 C1.93790123,2.327875 1.89987654,3.9105 2.96185185,4.84275 C3.35038366,5.17515735 3.82787267,5.38290053 4.33345679,5.4395 C2.79031499,8.74325403 3.26622491,12.6516642 5.55567901,15.477 L0,20.77625 L1.13666667,22 L6.71950617,16.680125 C10.0691972,19.5665658 14.9546348,19.6933915 18.4460147,16.9845444 C21.9373947,14.2756974 23.0870604,9.46643326 21.2055556,5.440875 C21.7151606,5.386258 22.1968034,5.1778753 22.5880247,4.84275 C23.65,3.916 23.6133333,2.327875 23.6119753,2.2605 C23.601709,1.93694637 23.3396005,1.68008307 23.0198765,1.68025 Z M12.7654321,1.4698739 C14.9884056,1.46939774 17.1085517,2.41791661 18.6049383,4.082375 C17.5185185,4.074125 16.0790123,4.23775 15.0306173,4.995375 C14.7698765,5.14525 13.5367901,5.935875 12.7735802,7.7825 C12.0171605,5.933125 10.777284,5.1425 10.5165432,4.992625 C9.46271605,4.23225 8.02185185,4.07 6.92592593,4.079625 C8.42279573,2.41618424 10.5428766,1.46869297 12.7654321,1.4698739 Z M12.7654321,17.4927505 C9.90939311,17.4937286 7.27467896,15.9356076 5.87247009,13.4163802 C4.47026122,10.8971529 4.51839384,7.80818665 5.99839506,5.335 C6.84037037,5.24425 8.72530864,5.154875 9.84975309,5.985375 L9.9217284,6.032125 C10.0140741,6.081625 12.1801235,7.30125 12.1801235,11.0385 C12.1696599,11.2597801 12.2802985,11.4689395 12.468015,11.5827515 C12.6557315,11.6965635 12.890071,11.6965635 13.0777875,11.5827515 C13.265504,11.4689395 13.3761426,11.2597801 13.365679,11.0385 C13.365679,7.30125 15.5303704,6.081625 15.618642,6.0335 L15.6960494,5.985375 C16.8137037,5.160375 18.6837037,5.24425 19.5338272,5.333625 C21.0137307,7.80722904 21.0616522,10.896501 19.6592019,13.4159416 C18.2567516,15.9353822 15.6217731,17.4936446 12.7654321,17.4927505 Z" id="Shape"></path>
                </g>
                <path d="M12.6297666,0 C8.83973763,0 5.42292484,2.28313078 3.97267018,5.78471343 C2.52241553,9.28629608 3.32434131,13.3167069 6.00449025,15.9964682 C8.68463918,18.6762296 12.7151658,19.4775725 16.2165386,18.0268115 C19.7179115,16.5760504 22.000548,13.1589074 22,9.36887844 C21.9940247,4.19653784 17.8021079,0.00522717683 12.6297666,0 Z M20.4714933,9.36887844 C20.4714933,13.6997446 16.9606326,17.2106053 12.6297666,17.2106053 C8.29890046,17.2106053 4.78803981,13.6997446 4.78803981,9.36887844 C4.78803981,5.03801228 8.29890046,1.52715158 12.6297666,1.52715158 C16.9584659,1.53237813 20.4662667,5.04017904 20.4714933,9.36887844 L20.4714933,9.36887844 Z" id="Shape"></path>
                <polygon id="Path" points="0 20.7758005 1.10266774 22 6.51851852 16.6781709 5.38818528 15.4814815"></polygon>
            </g>
        </g>
    </g>
</svg>