<svg xmlns="http://www.w3.org/2000/svg" xmlns:xlink="http://www.w3.org/1999/xlink" width="29" height="26" viewBox="0 0 29 26">
    <defs>
        <path id="a" d="M0 .133h28.487V26H0z"/>
    </defs>
    <g fill="none" fill-rule="evenodd">
        <path fill="#FFF" d="M20.15 10.4a1.95 1.95 0 1 0 0 3.9 1.95 1.95 0 0 0 0-3.9M9.75 10.4a1.95 1.95 0 1 0 0 3.9 1.95 1.95 0 0 0 0-3.9"/>
        <mask id="b" fill="#fff">
            <use xlink:href="#a"/>
        </mask>
        <path fill="#FFF" d="M15.402 20.694c-5.263 0-9.546-4.232-9.546-9.433 0-1.785.505-3.457 1.38-4.882 1.016-.107 3.29-.212 4.646.765l.089.055c.11.058 2.723 1.494 2.723 5.895 0 .39.32.706.715.706a.71.71 0 0 0 .715-.706c0-4.401 2.612-5.837 2.719-5.893l.093-.057c1.349-.972 3.608-.873 4.63-.766a9.294 9.294 0 0 1 1.382 4.883c0 5.201-4.282 9.433-9.546 9.433m0-18.866A9.574 9.574 0 0 1 22.444 4.9c-1.316-.01-3.047.184-4.313 1.076-.315.176-1.81 1.106-2.722 3.28-.911-2.174-2.408-3.104-2.722-3.28-1.27-.896-3.01-1.087-4.327-1.076a9.574 9.574 0 0 1 7.042-3.072m12.37.248h-.02a.712.712 0 0 0-.695.724c0 .013.02 1.287-.744 1.931-.361.306-.875.431-1.526.38A11.285 11.285 0 0 0 15.402.133c-3.919 0-7.369 1.979-9.386 4.98-.643.047-1.152-.078-1.511-.382-.76-.64-.744-1.905-.743-1.93a.71.71 0 0 0-.693-.727.711.711 0 0 0-.737.685c-.002.079-.046 1.949 1.235 3.039.457.39 1.012.62 1.654.703a10.974 10.974 0 0 0-1.081 4.76c0 2.683.961 5.144 2.562 7.066L0 24.559 1.372 26l6.735-6.263a11.294 11.294 0 0 0 7.295 2.653c6.22 0 11.262-4.982 11.262-11.128 0-1.703-.388-3.315-1.08-4.758.647-.08 1.207-.313 1.667-.705 1.281-1.09 1.238-2.96 1.235-3.04a.71.71 0 0 0-.714-.682" mask="url(#b)"/>
    </g>
</svg>
